<mxfile host="app.diagrams.net" modified="2024-04-25T04:34:15.516Z" agent="Mozilla/5.0 (Windows NT 10.0; Win64; x64) AppleWebKit/537.36 (KHTML, like Gecko) Chrome/124.0.0.0 Safari/537.36" version="24.3.0" etag="oOti4tUEhcEsG-SxQqRy" type="github">
  <diagram name="Page-1" id="EIm2W4P4SVtCoBEIcdX9">
    <mxGraphModel>
      <root>
        <mxCell id="0" />
        <mxCell id="1" parent="0" />
      </root>
    </mxGraphModel>
  </diagram>
</mxfile>
